<svg version="1.2" xmlns="http://www.w3.org/2000/svg" viewBox="0 0 512 512" width="512" height="512">
	<style>
		.s0 { fill: #f9d366 } 
		.s1 { fill: #ef8c33 } 
		.s2 { fill: #d83289 } 
		.s3 { fill: #ed4596 } 
	</style>
	<g id="Background">
		<path id="Path 0" class="s0" d="m337 1.05c-3.02 0.51-8.65 1.64-12.5 2.52-3.85 0.87-9.7 2.51-13 3.64-3.3 1.14-9.6 3.65-14 5.59-4.4 1.93-11.6 5.75-16 8.48-4.4 2.73-10.48 6.87-13.5 9.22-3.02 2.34-8.88 7.58-13 11.64-4.13 4.06-10.48 11.21-14.12 15.87-3.64 4.67-8.35 11.19-10.47 14.49-2.11 3.3-6.03 10.05-8.7 15-2.68 4.95-7.33 14.62-10.35 21.5-3.02 6.87-8.11 20.38-11.32 30-3.21 9.62-8.1 26.05-10.87 36.5-2.77 10.45-7.8 30.03-11.16 43.5-3.36 13.47-8.15 31.47-10.63 40-2.48 8.52-6.45 20.45-8.82 26.5-2.37 6.05-6.88 16.18-10.02 22.5-3.14 6.32-7.76 14.43-10.27 18-2.51 3.57-6.51 8.75-8.89 11.5-2.37 2.75-9.39 9.57-15.6 15.16-6.2 5.59-14.43 12.62-18.28 15.62-3.85 3-11.5 8.37-17 11.95-5.5 3.57-14.5 8.76-20 11.52-5.5 2.77-14.5 6.61-20 8.53-5.5 1.92-13.72 4.33-18.27 5.36-4.97 1.12-8.26 2.36-8.25 3.11 0.01 0.7 4.22 2.58 9.52 4.25 5.23 1.65 15.01 3.73 21.75 4.61 8.71 1.15 16 1.45 25.25 1.03 7.15-0.32 16.83-1.28 21.5-2.12 4.67-0.84 12.55-2.61 17.5-3.93 4.95-1.32 13.95-4.35 20-6.72 6.05-2.37 15.72-6.74 21.5-9.71 5.78-2.97 15-8.27 20.5-11.78 5.5-3.5 10.13-6.26 10.28-6.12 0.16 0.13-0.66 3.17-1.82 6.74-1.15 3.57-3.69 9.2-5.64 12.5-1.96 3.3-6.09 9.37-9.19 13.49-3.1 4.12-10.35 12.23-16.13 18.02-5.78 5.79-14.55 13.93-19.5 18.07-4.95 4.15-13.5 10.93-19 15.07-5.5 4.14-16.08 11.59-23.5 16.56-7.42 4.97-21.94 14.05-32.25 20.17-10.31 6.11-18.75 11.68-18.75 12.37-0.01 0.97 2.64 1.09 11.75 0.55 6.46-0.38 16.25-1.57 21.75-2.65 5.5-1.08 14.5-3.18 20-4.68 5.5-1.5 15.62-4.65 22.5-7.01 6.87-2.35 17-6.08 22.5-8.27 5.5-2.2 17.2-7.35 26-11.44 8.8-4.09 21.63-10.49 28.5-14.21 6.87-3.73 20.15-11.32 29.5-16.87 9.35-5.54 25.78-15.97 36.5-23.16 10.73-7.2 25.57-17.55 33-23.01 7.43-5.46 18.68-13.9 25-18.76 6.32-4.86 18.02-14.16 26-20.67 7.98-6.51 21.02-17.44 29-24.3 7.98-6.85 20.13-17.54 27-23.76 6.87-6.21 24.14-22.37 38.36-35.9 14.23-13.54 29.09-28.21 33.03-32.61 3.93-4.4 8.98-10.47 11.21-13.5 2.22-3.02 5.9-8.65 8.16-12.5 2.26-3.85 5.69-10.6 7.61-15 1.92-4.4 4.66-12.05 6.1-17 1.43-4.95 3.3-13.27 4.14-18.5 0.84-5.22 1.52-15.35 1.51-22.5 0-7.15-0.52-16.37-1.14-20.5-0.63-4.12-1.98-10.87-3-15-1.03-4.12-3.08-10.87-4.55-15-1.47-4.12-4.25-10.65-6.16-14.5-1.91-3.85-6.46-11.5-10.12-17-4.22-6.34-10.67-14.02-17.65-21-6.86-6.86-14.77-13.52-21-17.7-5.5-3.68-14.27-8.69-19.5-11.13-5.23-2.44-13.1-5.57-17.5-6.96-4.4-1.39-11.38-3.28-15.5-4.21-5.09-1.14-13.45-1.79-26-2.03-10.18-0.19-20.98 0.07-24 0.58z"/>
		<path id="Path 1" class="s1" d="m341 51.46c-4.13 0.78-11.32 2.79-16 4.47-4.68 1.68-12.32 5.4-17 8.28-4.68 2.88-11.81 8.39-15.86 12.26-4.05 3.87-9.76 10.63-12.68 15.03-2.92 4.4-6.64 10.92-8.25 14.5-1.62 3.58-4.31 11-6 16.5-1.68 5.5-3.77 13.6-4.65 18-0.87 4.4-2.26 13.4-3.08 20-0.82 6.6-1.93 21.45-2.47 33-0.54 11.55-1.46 31.57-2.04 44.5-0.59 12.93-1.7 28.23-2.47 34-0.77 5.77-2.08 13.43-2.92 17-0.83 3.57-2.45 9.2-3.6 12.5-1.15 3.3-3.07 7.68-4.28 9.73-1.21 2.05-1.98 3.95-1.7 4.21 0.28 0.27 5.45-0.81 11.5-2.4 6.05-1.58 15.73-4.44 21.5-6.35 5.77-1.91 15.9-5.59 22.5-8.18 6.6-2.58 19.2-8.23 28-12.54 8.8-4.31 21.18-10.92 27.5-14.69 6.32-3.77 16.9-10.52 23.5-15 6.6-4.48 16.95-12.11 23-16.95 6.05-4.84 16.78-14.44 23.85-21.32 7.06-6.88 14.79-15.44 17.18-19.01 2.38-3.57 5.9-9.88 7.82-14 1.91-4.13 4.51-11.32 5.78-16 1.94-7.18 2.29-10.91 2.26-24-0.02-12.78-0.41-16.9-2.22-23.5-1.2-4.4-3.9-11.6-6-16-2.09-4.4-5.78-10.92-8.2-14.5-2.41-3.58-7.33-9.44-10.93-13.04-3.6-3.6-9.47-8.52-13.04-10.94-3.57-2.42-10.1-6.1-14.5-8.16-4.4-2.07-11.6-4.71-16-5.86-5.28-1.39-12.25-2.25-20.5-2.53-8.31-0.28-15.02 0.05-20 0.99z"/>
		<path id="Path 2" class="s0" d="m132.5 193.97c-3.85 1.03-8.8 2.63-11 3.56-2.2 0.94-6.92 3.61-10.5 5.94-3.58 2.32-9.01 6.89-12.07 10.13-3.06 3.25-7.15 8.37-9.09 11.4-1.94 3.03-4.89 8.65-6.56 12.5-1.67 3.85-3.98 9.93-5.13 13.5-1.14 3.57-4.59 15.5-7.66 26.5-3.07 11-7.64 25.85-10.16 33-2.51 7.15-5.87 15.59-7.45 18.75-2.11 4.21-2.55 5.9-1.63 6.32 0.69 0.31 4.85-0.37 9.25-1.52 4.7-1.22 11.41-4.03 16.29-6.81 4.56-2.61 10.86-7.25 14-10.32 3.14-3.06 7.49-8.24 9.67-11.5 2.18-3.25 5.37-8.85 7.1-12.42 1.73-3.57 4.31-10.1 5.75-14.5 1.43-4.4 5.3-17.68 8.59-29.5 3.29-11.82 7.4-25.55 9.14-30.5 1.73-4.95 4.91-12.71 7.05-17.25 2.15-4.54 3.57-8.49 3.16-8.78-0.41-0.29-0.97-0.49-1.25-0.44-0.28 0.04-3.65 0.92-7.5 1.94z"/>
		<path id="Path 3" class="s2" d="m343 86.58c-3.02 0.79-8.65 2.98-12.5 4.87-3.85 1.89-9.66 5.82-12.9 8.74-3.25 2.92-7.26 7.3-8.93 9.73-1.66 2.43-2.38 4.14-1.59 3.81 0.78-0.34 4.12-1.73 7.42-3.1 3.3-1.37 9.82-3 14.5-3.62 6.12-0.81 10.39-0.83 15.25-0.07 3.71 0.58 9.34 1.97 12.5 3.08 3.16 1.11 8.14 3.47 11.06 5.25 2.92 1.78 7.61 5.48 10.43 8.23 2.81 2.75 6.85 7.7 8.97 11 2.13 3.3 4.75 8.36 5.83 11.25 1.08 2.89 2.46 8.51 3.07 12.5 0.82 5.36 0.81 9.47-0.04 15.75-0.63 4.68-2.27 11.2-3.66 14.5-1.39 3.3-2.83 6.68-3.2 7.5-0.51 1.13 0.14 1.01 2.65-0.5 1.83-1.1 6.1-4.93 9.49-8.51 3.38-3.57 7.8-9.65 9.81-13.5 2.02-3.84 4.43-9.92 5.36-13.49 1.29-4.95 1.57-9.13 1.2-17.5-0.34-7.49-1.16-12.91-2.59-17-1.14-3.3-3.81-8.7-5.92-12-2.1-3.3-6.16-8.36-9.02-11.25-2.85-2.89-8.23-7.04-11.94-9.22-3.81-2.25-10.23-4.86-14.75-6.01-5.18-1.32-11-2.02-16.5-1.97-4.68 0.05-10.98 0.73-14 1.53z"/>
		<path id="Path 4" class="s3" d="m330.5 106.63c-1.65 0.24-5.25 0.89-8 1.45-2.75 0.56-7.65 2.23-10.88 3.72-4.9 2.24-6.27 3.46-8.15 7.2-1.24 2.47-3.06 7.2-4.03 10.5-1.11 3.77-1.77 9.34-1.77 15-0.01 4.95 0.58 11.47 1.29 14.5 0.72 3.03 2.89 8.88 4.83 13 2.66 5.68 5.36 9.34 11.11 15.09 4.18 4.17 9.85 8.88 12.6 10.47 2.75 1.6 8.15 3.91 12 5.16 3.85 1.24 9.93 2.54 13.5 2.89 3.64 0.35 9.58 0.11 13.5-0.56 3.85-0.65 10.13-2.39 13.96-3.87 5.87-2.26 7.33-3.31 9.26-6.68 1.26-2.2 3.28-7.15 4.48-11 1.61-5.18 2.18-9.6 2.2-17 0.03-7.52-0.51-11.74-2.14-17-1.2-3.85-3.81-9.7-5.81-13-2-3.3-5.03-7.57-6.74-9.5-1.7-1.92-5.14-5.21-7.65-7.3-2.51-2.1-7.71-5.3-11.56-7.13-3.85-1.83-9.02-3.81-11.5-4.4-2.48-0.59-7.43-1.27-11-1.52-3.57-0.26-7.85-0.26-9.5-0.02z"/>
	</g>
</svg>